<svg id="visual" viewBox="0 0 900 450" width="900" height="450" xmlns="http://www.w3.org/2000/svg" xmlns:xlink="http://www.w3.org/1999/xlink" version="1.1"><path d="M0 216L21.5 220.2C43 224.3 86 232.7 128.8 230C171.7 227.3 214.3 213.7 257.2 210.7C300 207.7 343 215.3 385.8 220.2C428.7 225 471.3 227 514.2 240.2C557 253.3 600 277.7 642.8 286.3C685.7 295 728.3 288 771.2 278C814 268 857 255 878.5 248.5L900 242L900 451L878.5 451C857 451 814 451 771.2 451C728.3 451 685.7 451 642.8 451C600 451 557 451 514.2 451C471.3 451 428.7 451 385.8 451C343 451 300 451 257.2 451C214.3 451 171.7 451 128.8 451C86 451 43 451 21.5 451L0 451Z" fill="#3036c9"></path><path d="M0 367L21.5 358C43 349 86 331 128.8 331.5C171.7 332 214.3 351 257.2 363.5C300 376 343 382 385.8 377.2C428.7 372.3 471.3 356.7 514.2 348.3C557 340 600 339 642.8 346.5C685.7 354 728.3 370 771.2 362.5C814 355 857 324 878.5 308.5L900 293L900 451L878.5 451C857 451 814 451 771.2 451C728.3 451 685.7 451 642.8 451C600 451 557 451 514.2 451C471.3 451 428.7 451 385.8 451C343 451 300 451 257.2 451C214.3 451 171.7 451 128.8 451C86 451 43 451 21.5 451L0 451Z" fill="#0a092b"></path></svg>